<svg xmlns="http://www.w3.org/2000/svg" xmlns:xlink="http://www.w3.org/1999/xlink" version="1.1" style="enable-background:new 0 0 2701.3 3102.3;" xml:space="preserve" width="888" height="2518"><rect id="backgroundrect" width="100%" height="100%" x="0" y="0" fill="none" stroke="none"/>
<style type="text/css">
	.st0{fill:#502112;stroke:#502112;stroke-width:15;stroke-miterlimit:10;}
	.st1{fill:#502112;stroke:#502112;stroke-width:3;stroke-miterlimit:10;}
	.st2{fill:#502112;}
</style>
























<g class="currentLayer" style=""><title>Layer 1</title><g id="svg_1" class="">
	<path class="st0" d="M641.7944580078124,39.727801513671864 l-199.9,5.1 c1.6,2 -2.5,4.3 -1.4,6.8 c1.7000000000000002,3.9 2.4,8 2,12.1 l188.7,-4.7 l227.8,384.9 l-8,1906.7 l-315.6,136.4 l-497.5,-97.9 l-8,-1944.5 L194.0944580078126,216.52780151367188 c-2.4,-1.1 -3,-0.6000000000000003 -5,-2.5 c-2.8,-2.6 -6.8,-7.6 -8.7,-10.8 l-169.5,235 l8,1958.8 l0,7.8 l515.6,101.5 l2.9,0.6000000000000003 l332.4,-143.6 l8,-1921.7 l0,-2.6 L641.7944580078124,39.727801513671864 z" id="svg_2"/>
</g><g id="svg_3" class="">
	<polygon class="st0" points="545.8944091796875,2496.927734375 526.8944091796875,2496.827880859375 538.9945068359375,400.1277770996094 627.1944580078125,47.027801513671875 645.6944580078125,51.6278076171875 557.8944091796875,402.5278015136719 " id="svg_4"/>
</g><g id="svg_5" class="">
	<polygon class="st0" points="21.1944580078125,450.8277587890625 19.6944580078125,431.9278259277344 548.6944580078125,391.8277893066406 869.5943603515625,431.9278259277344 867.2945556640625,450.8277587890625 548.1944580078125,410.9278259277344 " id="svg_6"/>
</g><g id="svg_7" class="">
	<path class="st1" d="M232.1944580078125,226.22780151367192 c-32.7,0 -56.8,-10.9 -68.4,-31 c-12.4,-21.4 -8.5,-50 10.8,-80.4 c18.3,-28.7 48.5,-56.2 85.2,-77.3 s75.6,-33.6 109.6,-35.1 c36,-1.5 62.6,9.4 75,30.8 l0,0 c12.4,21.4 8.5,50 -10.8,80.4 c-18.3,28.7 -48.5,56.2 -85.2,77.3 s-75.6,33.6 -109.6,35.1 C236.49445800781245,226.1278015136719 234.2944580078124,226.22780151367192 232.1944580078125,226.22780151367192 zM376.0944580078126,19.627801513671898 c-30.9,0 -70.2,11.2 -107.8,32.9 c-67.9,39.2 -109,100.6 -89.6,134.1 c19.3,33.5 93.1,28.7 161,-10.6 c67.9,-39.2 109,-100.6 89.6,-134.1 C420.6944580078125,26.927801513671852 401.1944580078125,19.627801513671898 376.0944580078126,19.627801513671898 z" id="svg_8"/>
</g><g id="svg_9" class="">
	<path class="st2" d="M284.5944580078126,334.82780151367183 c-32.7,0 -56.8,-10.9 -68.4,-31 l-0.30000000000000016,-0.6000000000000003 l-52.4,-108.6 l15.6,-7.5 l52.3,108.3 c9.1,15.4 30.1,23.2 59.2,22 c31.3,-1.3 67.4,-13 101.7,-32.8 c34.3,-19.8 62.4,-45.2 79.2,-71.7 c15.7,-24.7 19.4,-46.9 10.4,-62.5 l-0.30000000000000016,-0.6000000000000003 l-52.4,-108.6 l15.6,-7.5 l52.3,108.3 c12.2,21.4 8.3,49.8 -11,80.1 c-18.3,28.7 -48.5,56.2 -85.2,77.3 s-75.6,33.6 -109.6,35.1 C288.99445800781245,334.7278015136719 286.7944580078124,334.82780151367183 284.5944580078126,334.82780151367183 z" id="svg_10"/>
</g><g id="svg_11" class="">
	
		<rect x="703.6055624967485" y="-381.4577650326743" transform="matrix(0.8729,-0.4879,0.4879,0.8729,-93.3994,875.5078) " class="st2" width="17.299999237060554" height="111.30000305175787" id="svg_12"/>
</g><g id="svg_13" class="">
	
		<rect x="744.8055136686232" y="-415.2578138607992" transform="matrix(0.8729,-0.4879,0.4879,0.8729,-71.718,891.3107) " class="st2" width="17.299999237060554" height="111.30000305175787" id="svg_14"/>
</g><g id="svg_15" class="">
	
		<rect x="774.7055380826861" y="-445.1577772397057" transform="matrix(0.8729,-0.4879,0.4879,0.8729,-53.2871,902.1357) " class="st2" width="17.299999237060554" height="111.30000305175787" id="svg_16"/>
</g><g id="svg_17" class="">
	
		<rect x="795.3055136686235" y="-477.05780165376785" transform="matrix(0.8729,-0.4879,0.4879,0.8729,-35.1385,908.1257) " class="st2" width="17.299999237060554" height="111.30000305175787" id="svg_18"/>
</g><g id="svg_19" class="">
	<polygon class="st2" points="263.3944091796875,318.8277893066406 209.094482421875,221.62777709960938 224.1944580078125,213.22781372070312 286.4945068359375,324.4278259277344 " id="svg_20"/>
</g><g id="svg_21" class="">
	
		<rect x="617.4056113248731" y="-355.2578138607993" transform="matrix(0.8729,-0.4879,0.4879,0.8729,-117.1419,836.8063) " class="st2" width="17.299999237060554" height="111.30000305175787" id="svg_22"/>
</g><g id="svg_23" class="">
	
		<rect x="662.4056113248732" y="-362.7578138607993" transform="matrix(0.8729,-0.4879,0.4879,0.8729,-107.7739,857.7834) " class="st2" width="17.299999237060554" height="111.30000305175787" id="svg_24"/>
</g></g></svg>