<svg xmlns="http://www.w3.org/2000/svg" xmlns:xlink="http://www.w3.org/1999/xlink" version="1.1" style="enable-background:new 0 0 2701.3 3102.3;" xml:space="preserve" width="610" height="1505"><rect id="backgroundrect" width="100%" height="100%" x="0" y="0" fill="none" stroke="none" class="selected" style=""/>
<style type="text/css">
	.st0{fill:#502112;stroke:#502112;stroke-width:15;stroke-miterlimit:10;}
	.st1{fill:#502112;stroke:#502112;stroke-width:3;stroke-miterlimit:10;}
	.st2{fill:#502112;}
</style>
























<g class="currentLayer" style=""><title>Layer 1</title><g id="svg_25" class="">
	<path class="st0" d="M568.6000002026558,77.00000002384195 l-186.1,3.8 c2.4,5.8 7.2,12.5 4.1,18.2 c-0.30000000000000016,0.6000000000000003 -0.6000000000000003,1.1 -1,1.6 l166.8,-4.2 l28.5,182.2 l-5.4,1104.7 l-210.1,90.8 l-332.1,-65.4 l-5.3,-1125.3 l175.2,-99.8 c-4.2,-4.7 -7.6,-10.1 -10.8,-15.7 l-183.5,104.5 l5.5,1151.9 l350.3,69 l2.9,0.6000000000000003 l227,-98.1 l5.4,-1117.8 l0,-0.8 L568.6000002026558,77.00000002384195 z" id="svg_26"/>
</g><g id="svg_27" class="">
	<polygon class="st0" points="375.89997559785843,1483.999951183796 356.89997559785843,1483.900097668171 365.0000122189522,246.60000306367874 554.1999633908272,79.60000306367874 566.6999633908272,93.90005189180374 384.0000122189522,255.19997864961624 " id="svg_28"/>
</g><g id="svg_29" class="">
	<polygon class="st0" points="544.6999633908272,343.5999878048897 372.6999633908272,260.5999878048897 19.099999248981476,287.4000366330147 17.60000115633011,268.4000366330147 376.30000001192093,241.19997864961624 540.0000122189522,320.2999389767647 583.1999633908272,271.5999878048897 597.4000366330147,284.1999633908272 " id="svg_30"/>
</g><g id="svg_31" class="">
	<path class="st2" d="M247.30000020265584,232.8000000238419 c-23.1,0 -40.2,-7.8 -48.6,-22.3 l-0.30000000000000016,-0.6000000000000003 l-35.4,-73.3 l15.6,-7.5 l35.2,72.9 c5.5,9.3 19.1,14.1 37.3,13.3 c20.6,-0.9 44.5,-8.6 67.3,-21.7 c22.7,-13.1 41.4,-30 52.5,-47.4 c9.9,-15.5 12.4,-29.8 7,-39.2 l-0.30000000000000016,-0.6000000000000003 l-35.4,-73.3 l15.6,-7.5 l35.2,73 c8.7,15.4 6,35.5 -7.5,56.8 c-12.6,19.7 -33.3,38.6 -58.4,53.1 c-25.1,14.5 -51.8,23 -75.2,24 C250.30000020265584,232.70000002384177 248.80000020265584,232.8000000238419 247.30000020265584,232.8000000238419 z" id="svg_32"/>
</g><g id="svg_33" class="">
	<path class="st1" d="M211.90000020265575,159.50000002384195 c-23.1,0 -40.2,-7.8 -48.6,-22.3 c-8.9,-15.4 -6.3,-35.7 7.4,-57.1 c12.6,-19.7 33.3,-38.6 58.4,-53.1 c25.1,-14.5 51.8,-23 75.2,-24 c25.4,-1.1 44.3,6.8 53.2,22.2 c17.5,30.4 -11.3,78.8 -65.8,110.2 c-25.1,14.5 -51.8,23 -75.2,24 C215.00000020265577,159.50000002384195 213.40000020265575,159.50000002384195 211.90000020265575,159.50000002384195 zM308.80000020265584,20.100000023841858 c-1.2,0 -2.5,0 -3.7,0.1 c-20.6,0.9 -44.5,8.6 -67.3,21.7 c-22.7,13.1 -41.4,30 -52.5,47.4 c-9.9,15.5 -12.4,29.8 -7,39.2 c5.4,9.4 19.1,14.4 37.5,13.6 c20.6,-0.9 44.5,-8.6 67.3,-21.7 c22.7,-13.1 41.4,-30 52.5,-47.4 c9.9,-15.5 12.4,-29.8 7,-39.2 C337.40000020265575,25.00000002384195 325.2000002026558,20.100000023841858 308.80000020265584,20.100000023841858 z" id="svg_34"/>
</g><g id="svg_35" class="">
	
		<rect x="1038.229810075781" y="50.28213190250429" transform="matrix(0.8729,-0.4879,0.4879,0.8729,-653.0208,603.0207) " class="st2" width="19.00000000000001" height="75.09999847412114" id="svg_36"/>
</g><g id="svg_37" class="">
	
		<rect x="1066.02979786875" y="27.48208307437922" transform="matrix(0.8729,-0.4879,0.4879,0.8729,-638.3943,613.6898) " class="st2" width="19.00000000000001" height="75.09999847412114" id="svg_38"/>
</g><g id="svg_39" class="">
	
		<rect x="1086.2298100757812" y="7.282131902504322" transform="matrix(0.8729,-0.4879,0.4879,0.8729,-625.961,620.9771) " class="st2" width="19.00000000000001" height="75.09999847412114" id="svg_40"/>
</g><g id="svg_41" class="">
	
		<rect x="1081.8268242031443" y="-16.831334060750805" transform="matrix(0.8791,-0.4767,0.4767,0.8791,-603.3433,606.2098) " class="st2" width="19" height="79.0999984741211" id="svg_42"/>
</g><g id="svg_43" class="">
	
		<rect x="919.7179191224548" y="60.603999380917685" transform="matrix(0.8843,-0.4669,0.4669,0.8843,-648.4741,531.0347) " class="st2" width="19" height="83.5" id="svg_44"/>
</g><g id="svg_45" class="">
	
		<rect x="980.1298344898435" y="67.88210748844207" transform="matrix(0.8729,-0.4879,0.4879,0.8729,-669.0355,576.9174) " class="st2" width="19.00000000000001" height="75.09999847412114" id="svg_46"/>
</g><g id="svg_47" class="">
	
		<rect x="1010.4298222828118" y="62.88210748844202" transform="matrix(0.8729,-0.4879,0.4879,0.8729,-662.7165,591.0671) " class="st2" width="19.00000000000001" height="75.09999847412114" id="svg_48"/>
</g></g></svg>